<svg xmlns="http://www.w3.org/2000/svg" height="500px" width="500px" font-family="sans-serif">
    <text x="50%" y="5%" style="font-size: 18px; text-anchor: middle;">Petal Length vs. Petal Width of All Species</text>
    <line x1="14%" x2="90%" y1="86%" y2="86%" style="stroke-width: 2px; stroke: black;"></line>
    <g>
        <line x1="14%" x2="14%" y1="86%" y2="87.2%" style="stroke-width: 2px; stroke: black;"></line>
        <line x1="29.2%" x2="29.2%" y1="86%" y2="87.2%" style="stroke-width: 2px; stroke: black;"></line>
        <line x1="44.4%" x2="44.4%" y1="86%" y2="87.2%" style="stroke-width: 2px; stroke: black;"></line>
        <line x1="59.599999999999994%" x2="59.599999999999994%" y1="86%" y2="87.2%" style="stroke-width: 2px; stroke: black;"></line>
        <line x1="74.8%" x2="74.8%" y1="86%" y2="87.2%" style="stroke-width: 2px; stroke: black;"></line>
        <line x1="90%" x2="90%" y1="86%" y2="87.2%" style="stroke-width: 2px; stroke: black;"></line>
    </g>
    <g>
        <text x="14%" y="90%" style="text-anchor: middle; transform: translateX(0px);">0.1</text>
        <text x="29.2%" y="90%" style="text-anchor: middle; transform: translateX(-1px);">0.6</text>
        <text x="44.4%" y="90%" style="text-anchor: middle; transform: translateX(-1px);">1.1</text>
        <text x="59.599999999999994%" y="90%" style="text-anchor: middle; transform: translateX(-1px);">1.5</text>
        <text x="74.8%" y="90%" style="text-anchor: middle; transform: translateX(-1px);">2.0</text>
        <text x="90%" y="90%" style="text-anchor: middle; transform: translateX(-1px);">2.5</text>
    </g>
    <text x="52%" y="97%" style="text-anchor: middle;">Petal Width</text>
    <line x1="14%" x2="14%" y1="86%" y2="10%" style="stroke-width: 2px; stroke: black;"></line>
    <g>
        <line x1="14%" x2="12.8%" y1="86%" y2="86%" style="stroke-width: 2px; stroke: black;"></line>
        <line x1="14%" x2="12.8%" y1="70.8%" y2="70.8%" style="stroke-width: 2px; stroke: black;"></line>
        <line x1="14%" x2="12.8%" y1="55.6%" y2="55.6%" style="stroke-width: 2px; stroke: black;"></line>
        <line x1="14%" x2="12.8%" y1="40.400000000000006%" y2="40.400000000000006%" style="stroke-width: 2px; stroke: black;"></line>
        <line x1="14%" x2="12.8%" y1="25.200000000000003%" y2="25.200000000000003%" style="stroke-width: 2px; stroke: black;"></line>
        <line x1="14%" x2="12.8%" y1="10%" y2="10%" style="stroke-width: 2px; stroke: black;"></line>
    </g>
    <g>
        <text x="12%" y="86%" dy="0.32em" style="text-anchor: end; transform: translateX(0px);">1.0</text>
        <text x="12%" y="70.8%" dy="0.32em" style="text-anchor: end; transform: translateX(1px);">2.2</text>
        <text x="12%" y="55.6%" dy="0.32em" style="text-anchor: end; transform: translateX(1px);">3.4</text>
        <text x="12%" y="40.400000000000006%" dy="0.32em" style="text-anchor: end; transform: translateX(1px);">4.5</text>
        <text x="12%" y="25.200000000000003%" dy="0.32em" style="text-anchor: end; transform: translateX(1px);">5.7</text>
        <text x="12%" y="10%" dy="0.32em" style="text-anchor: end; transform: translateX(1px);">6.9</text>
    </g>
    <text x="-48%" y="3%" style="text-anchor: middle; transform: rotateZ(-90deg);">Petal Length</text>
    <g>
        <circle cx="17.166666666666668%" cy="80.84745762711864%" r="4" fill="rgba(65, 105, 225, 0.4)"></circle>
        <circle cx="17.166666666666668%" cy="80.84745762711864%" r="4" fill="rgba(65, 105, 225, 0.4)"></circle>
        <circle cx="17.166666666666668%" cy="82.13559322033899%" r="4" fill="rgba(65, 105, 225, 0.4)"></circle>
        <circle cx="17.166666666666668%" cy="79.55932203389831%" r="4" fill="rgba(65, 105, 225, 0.4)"></circle>
        <circle cx="17.166666666666668%" cy="80.84745762711864%" r="4" fill="rgba(65, 105, 225, 0.4)"></circle>
        <circle cx="23.500000000000004%" cy="76.98305084745763%" r="4" fill="rgba(65, 105, 225, 0.4)"></circle>
        <circle cx="20.333333333333332%" cy="80.84745762711864%" r="4" fill="rgba(65, 105, 225, 0.4)"></circle>
        <circle cx="17.166666666666668%" cy="79.55932203389831%" r="4" fill="rgba(65, 105, 225, 0.4)"></circle>
        <circle cx="17.166666666666668%" cy="80.84745762711864%" r="4" fill="rgba(65, 105, 225, 0.4)"></circle>
        <circle cx="14%" cy="79.55932203389831%" r="4" fill="rgba(65, 105, 225, 0.4)"></circle>
        <circle cx="17.166666666666668%" cy="79.55932203389831%" r="4" fill="rgba(65, 105, 225, 0.4)"></circle>
        <circle cx="17.166666666666668%" cy="78.27118644067797%" r="4" fill="rgba(65, 105, 225, 0.4)"></circle>
        <circle cx="14%" cy="80.84745762711864%" r="4" fill="rgba(65, 105, 225, 0.4)"></circle>
        <circle cx="14%" cy="84.71186440677965%" r="4" fill="rgba(65, 105, 225, 0.4)"></circle>
        <circle cx="17.166666666666668%" cy="83.42372881355932%" r="4" fill="rgba(65, 105, 225, 0.4)"></circle>
        <circle cx="23.500000000000004%" cy="79.55932203389831%" r="4" fill="rgba(65, 105, 225, 0.4)"></circle>
        <circle cx="23.500000000000004%" cy="82.13559322033899%" r="4" fill="rgba(65, 105, 225, 0.4)"></circle>
        <circle cx="20.333333333333332%" cy="80.84745762711864%" r="4" fill="rgba(65, 105, 225, 0.4)"></circle>
        <circle cx="20.333333333333332%" cy="76.98305084745763%" r="4" fill="rgba(65, 105, 225, 0.4)"></circle>
        <circle cx="20.333333333333332%" cy="79.55932203389831%" r="4" fill="rgba(65, 105, 225, 0.4)"></circle>
        <circle cx="17.166666666666668%" cy="76.98305084745763%" r="4" fill="rgba(65, 105, 225, 0.4)"></circle>
        <circle cx="23.500000000000004%" cy="79.55932203389831%" r="4" fill="rgba(65, 105, 225, 0.4)"></circle>
        <circle cx="17.166666666666668%" cy="86%" r="4" fill="rgba(65, 105, 225, 0.4)"></circle>
        <circle cx="26.666666666666668%" cy="76.98305084745763%" r="4" fill="rgba(65, 105, 225, 0.4)"></circle>
        <circle cx="17.166666666666668%" cy="74.40677966101696%" r="4" fill="rgba(65, 105, 225, 0.4)"></circle>
        <circle cx="17.166666666666668%" cy="78.27118644067797%" r="4" fill="rgba(65, 105, 225, 0.4)"></circle>
        <circle cx="23.500000000000004%" cy="78.27118644067797%" r="4" fill="rgba(65, 105, 225, 0.4)"></circle>
        <circle cx="17.166666666666668%" cy="79.55932203389831%" r="4" fill="rgba(65, 105, 225, 0.4)"></circle>
        <circle cx="17.166666666666668%" cy="80.84745762711864%" r="4" fill="rgba(65, 105, 225, 0.4)"></circle>
        <circle cx="17.166666666666668%" cy="78.27118644067797%" r="4" fill="rgba(65, 105, 225, 0.4)"></circle>
        <circle cx="17.166666666666668%" cy="78.27118644067797%" r="4" fill="rgba(65, 105, 225, 0.4)"></circle>
        <circle cx="23.500000000000004%" cy="79.55932203389831%" r="4" fill="rgba(65, 105, 225, 0.4)"></circle>
        <circle cx="14%" cy="79.55932203389831%" r="4" fill="rgba(65, 105, 225, 0.4)"></circle>
        <circle cx="17.166666666666668%" cy="80.84745762711864%" r="4" fill="rgba(65, 105, 225, 0.4)"></circle>
        <circle cx="17.166666666666668%" cy="79.55932203389831%" r="4" fill="rgba(65, 105, 225, 0.4)"></circle>
        <circle cx="17.166666666666668%" cy="83.42372881355932%" r="4" fill="rgba(65, 105, 225, 0.4)"></circle>
        <circle cx="17.166666666666668%" cy="82.13559322033899%" r="4" fill="rgba(65, 105, 225, 0.4)"></circle>
        <circle cx="14%" cy="80.84745762711864%" r="4" fill="rgba(65, 105, 225, 0.4)"></circle>
        <circle cx="17.166666666666668%" cy="82.13559322033899%" r="4" fill="rgba(65, 105, 225, 0.4)"></circle>
        <circle cx="17.166666666666668%" cy="79.55932203389831%" r="4" fill="rgba(65, 105, 225, 0.4)"></circle>
        <circle cx="20.333333333333332%" cy="82.13559322033899%" r="4" fill="rgba(65, 105, 225, 0.4)"></circle>
        <circle cx="20.333333333333332%" cy="82.13559322033899%" r="4" fill="rgba(65, 105, 225, 0.4)"></circle>
        <circle cx="17.166666666666668%" cy="82.13559322033899%" r="4" fill="rgba(65, 105, 225, 0.4)"></circle>
        <circle cx="29.833333333333336%" cy="78.27118644067797%" r="4" fill="rgba(65, 105, 225, 0.4)"></circle>
        <circle cx="23.500000000000004%" cy="74.40677966101696%" r="4" fill="rgba(65, 105, 225, 0.4)"></circle>
        <circle cx="20.333333333333332%" cy="80.84745762711864%" r="4" fill="rgba(65, 105, 225, 0.4)"></circle>
        <circle cx="17.166666666666668%" cy="78.27118644067797%" r="4" fill="rgba(65, 105, 225, 0.4)"></circle>
        <circle cx="17.166666666666668%" cy="80.84745762711864%" r="4" fill="rgba(65, 105, 225, 0.4)"></circle>
        <circle cx="17.166666666666668%" cy="79.55932203389831%" r="4" fill="rgba(65, 105, 225, 0.4)"></circle>
        <circle cx="17.166666666666668%" cy="80.84745762711864%" r="4" fill="rgba(65, 105, 225, 0.4)"></circle>
        <circle cx="90%" cy="21.59322033898306%" r="4" fill="rgba(35, 142, 35, 0.4)"></circle>
        <circle cx="71%" cy="33.18644067796611%" r="4" fill="rgba(35, 142, 35, 0.4)"></circle>
        <circle cx="77.33333333333334%" cy="22.88135593220339%" r="4" fill="rgba(35, 142, 35, 0.4)"></circle>
        <circle cx="67.83333333333334%" cy="26.74576271186441%" r="4" fill="rgba(35, 142, 35, 0.4)"></circle>
        <circle cx="80.50000000000001%" cy="24.16949152542373%" r="4" fill="rgba(35, 142, 35, 0.4)"></circle>
        <circle cx="77.33333333333334%" cy="13.864406779661024%" r="4" fill="rgba(35, 142, 35, 0.4)"></circle>
        <circle cx="64.66666666666666%" cy="40.91525423728814%" r="4" fill="rgba(35, 142, 35, 0.4)"></circle>
        <circle cx="67.83333333333334%" cy="17.728813559322035%" r="4" fill="rgba(35, 142, 35, 0.4)"></circle>
        <circle cx="67.83333333333334%" cy="24.16949152542373%" r="4" fill="rgba(35, 142, 35, 0.4)"></circle>
        <circle cx="90%" cy="20.305084745762713%" r="4" fill="rgba(35, 142, 35, 0.4)"></circle>
        <circle cx="74.16666666666666%" cy="33.18644067796611%" r="4" fill="rgba(35, 142, 35, 0.4)"></circle>
        <circle cx="71%" cy="30.610169491525426%" r="4" fill="rgba(35, 142, 35, 0.4)"></circle>
        <circle cx="77.33333333333334%" cy="28.033898305084747%" r="4" fill="rgba(35, 142, 35, 0.4)"></circle>
        <circle cx="74.16666666666666%" cy="34.47457627118645%" r="4" fill="rgba(35, 142, 35, 0.4)"></circle>
        <circle cx="86.83333333333333%" cy="33.18644067796611%" r="4" fill="rgba(35, 142, 35, 0.4)"></circle>
        <circle cx="83.66666666666666%" cy="30.610169491525426%" r="4" fill="rgba(35, 142, 35, 0.4)"></circle>
        <circle cx="67.83333333333334%" cy="28.033898305084747%" r="4" fill="rgba(35, 142, 35, 0.4)"></circle>
        <circle cx="80.50000000000001%" cy="12.576271186440678%" r="4" fill="rgba(35, 142, 35, 0.4)"></circle>
        <circle cx="83.66666666666666%" cy="10%" r="4" fill="rgba(35, 142, 35, 0.4)"></circle>
        <circle cx="58.333333333333336%" cy="34.47457627118645%" r="4" fill="rgba(35, 142, 35, 0.4)"></circle>
        <circle cx="83.66666666666666%" cy="25.45762711864407%" r="4" fill="rgba(35, 142, 35, 0.4)"></circle>
        <circle cx="74.16666666666666%" cy="35.762711864406775%" r="4" fill="rgba(35, 142, 35, 0.4)"></circle>
        <circle cx="74.16666666666666%" cy="12.576271186440678%" r="4" fill="rgba(35, 142, 35, 0.4)"></circle>
        <circle cx="67.83333333333334%" cy="35.762711864406775%" r="4" fill="rgba(35, 142, 35, 0.4)"></circle>
        <circle cx="77.33333333333334%" cy="25.45762711864407%" r="4" fill="rgba(35, 142, 35, 0.4)"></circle>
        <circle cx="67.83333333333334%" cy="21.59322033898306%" r="4" fill="rgba(35, 142, 35, 0.4)"></circle>
        <circle cx="67.83333333333334%" cy="37.05084745762712%" r="4" fill="rgba(35, 142, 35, 0.4)"></circle>
        <circle cx="67.83333333333334%" cy="35.762711864406775%" r="4" fill="rgba(35, 142, 35, 0.4)"></circle>
        <circle cx="77.33333333333334%" cy="26.74576271186441%" r="4" fill="rgba(35, 142, 35, 0.4)"></circle>
        <circle cx="61.5%" cy="24.16949152542373%" r="4" fill="rgba(35, 142, 35, 0.4)"></circle>
        <circle cx="71%" cy="20.305084745762713%" r="4" fill="rgba(35, 142, 35, 0.4)"></circle>
        <circle cx="74.16666666666666%" cy="16.44067796610169%" r="4" fill="rgba(35, 142, 35, 0.4)"></circle>
        <circle cx="80.50000000000001%" cy="26.74576271186441%" r="4" fill="rgba(35, 142, 35, 0.4)"></circle>
        <circle cx="58.333333333333336%" cy="33.18644067796611%" r="4" fill="rgba(35, 142, 35, 0.4)"></circle>
        <circle cx="55.166666666666664%" cy="26.74576271186441%" r="4" fill="rgba(35, 142, 35, 0.4)"></circle>
        <circle cx="83.66666666666666%" cy="20.305084745762713%" r="4" fill="rgba(35, 142, 35, 0.4)"></circle>
        <circle cx="86.83333333333333%" cy="26.74576271186441%" r="4" fill="rgba(35, 142, 35, 0.4)"></circle>
        <circle cx="67.83333333333334%" cy="28.033898305084747%" r="4" fill="rgba(35, 142, 35, 0.4)"></circle>
        <circle cx="67.83333333333334%" cy="37.05084745762712%" r="4" fill="rgba(35, 142, 35, 0.4)"></circle>
        <circle cx="77.33333333333334%" cy="29.322033898305087%" r="4" fill="rgba(35, 142, 35, 0.4)"></circle>
        <circle cx="86.83333333333333%" cy="26.74576271186441%" r="4" fill="rgba(35, 142, 35, 0.4)"></circle>
        <circle cx="83.66666666666666%" cy="33.18644067796611%" r="4" fill="rgba(35, 142, 35, 0.4)"></circle>
        <circle cx="71%" cy="33.18644067796611%" r="4" fill="rgba(35, 142, 35, 0.4)"></circle>
        <circle cx="83.66666666666666%" cy="22.88135593220339%" r="4" fill="rgba(35, 142, 35, 0.4)"></circle>
        <circle cx="90%" cy="25.45762711864407%" r="4" fill="rgba(35, 142, 35, 0.4)"></circle>
        <circle cx="83.66666666666666%" cy="31.898305084745758%" r="4" fill="rgba(35, 142, 35, 0.4)"></circle>
        <circle cx="71%" cy="34.47457627118645%" r="4" fill="rgba(35, 142, 35, 0.4)"></circle>
        <circle cx="74.16666666666666%" cy="31.898305084745758%" r="4" fill="rgba(35, 142, 35, 0.4)"></circle>
        <circle cx="83.66666666666666%" cy="29.322033898305087%" r="4" fill="rgba(35, 142, 35, 0.4)"></circle>
        <circle cx="67.83333333333334%" cy="33.18644067796611%" r="4" fill="rgba(35, 142, 35, 0.4)"></circle>
        <circle cx="55.166666666666664%" cy="38.33898305084746%" r="4" fill="rgba(255, 127, 0, 0.4)"></circle>
        <circle cx="58.333333333333336%" cy="40.91525423728814%" r="4" fill="rgba(255, 127, 0, 0.4)"></circle>
        <circle cx="58.333333333333336%" cy="35.762711864406775%" r="4" fill="rgba(255, 127, 0, 0.4)"></circle>
        <circle cx="52%" cy="47.35593220338983%" r="4" fill="rgba(255, 127, 0, 0.4)"></circle>
        <circle cx="58.333333333333336%" cy="39.6271186440678%" r="4" fill="rgba(255, 127, 0, 0.4)"></circle>
        <circle cx="52%" cy="40.91525423728814%" r="4" fill="rgba(255, 127, 0, 0.4)"></circle>
        <circle cx="61.5%" cy="38.33898305084746%" r="4" fill="rgba(255, 127, 0, 0.4)"></circle>
        <circle cx="42.5%" cy="56.37288135593221%" r="4" fill="rgba(255, 127, 0, 0.4)"></circle>
        <circle cx="52%" cy="39.6271186440678%" r="4" fill="rgba(255, 127, 0, 0.4)"></circle>
        <circle cx="55.166666666666664%" cy="48.64406779661017%" r="4" fill="rgba(255, 127, 0, 0.4)"></circle>
        <circle cx="42.5%" cy="53.79661016949153%" r="4" fill="rgba(255, 127, 0, 0.4)"></circle>
        <circle cx="58.333333333333336%" cy="44.779661016949156%" r="4" fill="rgba(255, 127, 0, 0.4)"></circle>
        <circle cx="42.5%" cy="47.35593220338983%" r="4" fill="rgba(255, 127, 0, 0.4)"></circle>
        <circle cx="55.166666666666664%" cy="38.33898305084746%" r="4" fill="rgba(255, 127, 0, 0.4)"></circle>
        <circle cx="52%" cy="52.50847457627119%" r="4" fill="rgba(255, 127, 0, 0.4)"></circle>
        <circle cx="55.166666666666664%" cy="42.20338983050847%" r="4" fill="rgba(255, 127, 0, 0.4)"></circle>
        <circle cx="58.333333333333336%" cy="40.91525423728814%" r="4" fill="rgba(255, 127, 0, 0.4)"></circle>
        <circle cx="42.5%" cy="46.067796610169495%" r="4" fill="rgba(255, 127, 0, 0.4)"></circle>
        <circle cx="58.333333333333336%" cy="40.91525423728814%" r="4" fill="rgba(255, 127, 0, 0.4)"></circle>
        <circle cx="45.66666666666667%" cy="48.64406779661017%" r="4" fill="rgba(255, 127, 0, 0.4)"></circle>
        <circle cx="67.83333333333334%" cy="37.05084745762712%" r="4" fill="rgba(255, 127, 0, 0.4)"></circle>
        <circle cx="52%" cy="47.35593220338983%" r="4" fill="rgba(255, 127, 0, 0.4)"></circle>
        <circle cx="58.333333333333336%" cy="35.762711864406775%" r="4" fill="rgba(255, 127, 0, 0.4)"></circle>
        <circle cx="48.83333333333333%" cy="38.33898305084746%" r="4" fill="rgba(255, 127, 0, 0.4)"></circle>
        <circle cx="52%" cy="43.49152542372882%" r="4" fill="rgba(255, 127, 0, 0.4)"></circle>
        <circle cx="55.166666666666664%" cy="42.20338983050847%" r="4" fill="rgba(255, 127, 0, 0.4)"></circle>
        <circle cx="55.166666666666664%" cy="37.05084745762712%" r="4" fill="rgba(255, 127, 0, 0.4)"></circle>
        <circle cx="64.66666666666666%" cy="34.47457627118645%" r="4" fill="rgba(255, 127, 0, 0.4)"></circle>
        <circle cx="58.333333333333336%" cy="40.91525423728814%" r="4" fill="rgba(255, 127, 0, 0.4)"></circle>
        <circle cx="42.5%" cy="53.79661016949153%" r="4" fill="rgba(255, 127, 0, 0.4)"></circle>
        <circle cx="45.66666666666667%" cy="49.93220338983051%" r="4" fill="rgba(255, 127, 0, 0.4)"></circle>
        <circle cx="42.5%" cy="51.220338983050844%" r="4" fill="rgba(255, 127, 0, 0.4)"></circle>
        <circle cx="48.83333333333333%" cy="48.64406779661017%" r="4" fill="rgba(255, 127, 0, 0.4)"></circle>
        <circle cx="61.5%" cy="33.18644067796611%" r="4" fill="rgba(255, 127, 0, 0.4)"></circle>
        <circle cx="58.333333333333336%" cy="40.91525423728814%" r="4" fill="rgba(255, 127, 0, 0.4)"></circle>
        <circle cx="61.5%" cy="40.91525423728814%" r="4" fill="rgba(255, 127, 0, 0.4)"></circle>
        <circle cx="58.333333333333336%" cy="38.33898305084746%" r="4" fill="rgba(255, 127, 0, 0.4)"></circle>
        <circle cx="52%" cy="42.20338983050847%" r="4" fill="rgba(255, 127, 0, 0.4)"></circle>
        <circle cx="52%" cy="46.067796610169495%" r="4" fill="rgba(255, 127, 0, 0.4)"></circle>
        <circle cx="52%" cy="47.35593220338983%" r="4" fill="rgba(255, 127, 0, 0.4)"></circle>
        <circle cx="48.83333333333333%" cy="42.20338983050847%" r="4" fill="rgba(255, 127, 0, 0.4)"></circle>
        <circle cx="55.166666666666664%" cy="39.6271186440678%" r="4" fill="rgba(255, 127, 0, 0.4)"></circle>
        <circle cx="48.83333333333333%" cy="47.35593220338983%" r="4" fill="rgba(255, 127, 0, 0.4)"></circle>
        <circle cx="42.5%" cy="56.37288135593221%" r="4" fill="rgba(255, 127, 0, 0.4)"></circle>
        <circle cx="52%" cy="44.779661016949156%" r="4" fill="rgba(255, 127, 0, 0.4)"></circle>
        <circle cx="48.83333333333333%" cy="44.779661016949156%" r="4" fill="rgba(255, 127, 0, 0.4)"></circle>
        <circle cx="52%" cy="44.779661016949156%" r="4" fill="rgba(255, 127, 0, 0.4)"></circle>
        <circle cx="52%" cy="43.49152542372882%" r="4" fill="rgba(255, 127, 0, 0.4)"></circle>
        <circle cx="45.66666666666667%" cy="60.237288135593225%" r="4" fill="rgba(255, 127, 0, 0.4)"></circle>
        <circle cx="52%" cy="46.067796610169495%" r="4" fill="rgba(255, 127, 0, 0.4)"></circle>
    </g>
</svg>
