<svg xmlns="http://www.w3.org/2000/svg" height="500px" width="500px" font-family="sans-serif">
    <text x="50%" y="5%" style="font-size: 18px; text-anchor: middle;">Sepal Length vs. Sepal Width of All Species</text>
    <line x1="14%" x2="90%" y1="86%" y2="86%" style="stroke-width: 2px; stroke: black;"></line>
    <g>
        <line x1="14%" x2="14%" y1="86%" y2="87.2%" style="stroke-width: 2px; stroke: black;"></line>
        <line x1="29.2%" x2="29.2%" y1="86%" y2="87.2%" style="stroke-width: 2px; stroke: black;"></line>
        <line x1="44.4%" x2="44.4%" y1="86%" y2="87.2%" style="stroke-width: 2px; stroke: black;"></line>
        <line x1="59.599999999999994%" x2="59.599999999999994%" y1="86%" y2="87.2%" style="stroke-width: 2px; stroke: black;"></line>
        <line x1="74.8%" x2="74.8%" y1="86%" y2="87.2%" style="stroke-width: 2px; stroke: black;"></line>
        <line x1="90%" x2="90%" y1="86%" y2="87.2%" style="stroke-width: 2px; stroke: black;"></line>
    </g>
    <g>
        <text x="14%" y="90%" style="text-anchor: middle; transform: translateX(0px);">2.0</text>
        <text x="29.2%" y="90%" style="text-anchor: middle; transform: translateX(-1px);">2.5</text>
        <text x="44.4%" y="90%" style="text-anchor: middle; transform: translateX(-1px);">3.0</text>
        <text x="59.599999999999994%" y="90%" style="text-anchor: middle; transform: translateX(-1px);">3.4</text>
        <text x="74.8%" y="90%" style="text-anchor: middle; transform: translateX(-1px);">3.9</text>
        <text x="90%" y="90%" style="text-anchor: middle; transform: translateX(-1px);">4.4</text>
    </g>
    <text x="52%" y="97%" style="text-anchor: middle;">Sepal Width</text>
    <line x1="14%" x2="14%" y1="86%" y2="10%" style="stroke-width: 2px; stroke: black;"></line>
    <g>
        <line x1="14%" x2="12.8%" y1="86%" y2="86%" style="stroke-width: 2px; stroke: black;"></line>
        <line x1="14%" x2="12.8%" y1="70.8%" y2="70.8%" style="stroke-width: 2px; stroke: black;"></line>
        <line x1="14%" x2="12.8%" y1="55.6%" y2="55.6%" style="stroke-width: 2px; stroke: black;"></line>
        <line x1="14%" x2="12.8%" y1="40.400000000000006%" y2="40.400000000000006%" style="stroke-width: 2px; stroke: black;"></line>
        <line x1="14%" x2="12.8%" y1="25.200000000000003%" y2="25.200000000000003%" style="stroke-width: 2px; stroke: black;"></line>
        <line x1="14%" x2="12.8%" y1="10%" y2="10%" style="stroke-width: 2px; stroke: black;"></line>
    </g>
    <g>
        <text x="12%" y="86%" dy="0.32em" style="text-anchor: end; transform: translateX(0px);">4.3</text>
        <text x="12%" y="70.8%" dy="0.32em" style="text-anchor: end; transform: translateX(1px);">5.0</text>
        <text x="12%" y="55.6%" dy="0.32em" style="text-anchor: end; transform: translateX(1px);">5.7</text>
        <text x="12%" y="40.400000000000006%" dy="0.32em" style="text-anchor: end; transform: translateX(1px);">6.5</text>
        <text x="12%" y="25.200000000000003%" dy="0.32em" style="text-anchor: end; transform: translateX(1px);">7.2</text>
        <text x="12%" y="10%" dy="0.32em" style="text-anchor: end; transform: translateX(1px);">7.9</text>
    </g>
    <text x="-48%" y="3%" style="text-anchor: middle; transform: rotateZ(-90deg);">Sepal Length</text>
    <g>
        <circle cx="61.49999999999999%" cy="69.11111111111111%" r="4" fill="rgba(65, 105, 225, 0.4)"></circle>
        <circle cx="45.666666666666664%" cy="73.33333333333333%" r="4" fill="rgba(65, 105, 225, 0.4)"></circle>
        <circle cx="52%" cy="77.55555555555554%" r="4" fill="rgba(65, 105, 225, 0.4)"></circle>
        <circle cx="48.83333333333333%" cy="79.66666666666667%" r="4" fill="rgba(65, 105, 225, 0.4)"></circle>
        <circle cx="64.66666666666666%" cy="71.22222222222223%" r="4" fill="rgba(65, 105, 225, 0.4)"></circle>
        <circle cx="74.16666666666666%" cy="62.77777777777777%" r="4" fill="rgba(65, 105, 225, 0.4)"></circle>
        <circle cx="58.33333333333333%" cy="79.66666666666667%" r="4" fill="rgba(65, 105, 225, 0.4)"></circle>
        <circle cx="58.33333333333333%" cy="71.22222222222223%" r="4" fill="rgba(65, 105, 225, 0.4)"></circle>
        <circle cx="42.499999999999986%" cy="83.88888888888887%" r="4" fill="rgba(65, 105, 225, 0.4)"></circle>
        <circle cx="48.83333333333333%" cy="73.33333333333333%" r="4" fill="rgba(65, 105, 225, 0.4)"></circle>
        <circle cx="67.83333333333333%" cy="62.77777777777777%" r="4" fill="rgba(65, 105, 225, 0.4)"></circle>
        <circle cx="58.33333333333333%" cy="75.44444444444444%" r="4" fill="rgba(65, 105, 225, 0.4)"></circle>
        <circle cx="45.666666666666664%" cy="75.44444444444444%" r="4" fill="rgba(65, 105, 225, 0.4)"></circle>
        <circle cx="45.666666666666664%" cy="86%" r="4" fill="rgba(65, 105, 225, 0.4)"></circle>
        <circle cx="77.33333333333333%" cy="54.333333333333336%" r="4" fill="rgba(65, 105, 225, 0.4)"></circle>
        <circle cx="90%" cy="56.44444444444444%" r="4" fill="rgba(65, 105, 225, 0.4)"></circle>
        <circle cx="74.16666666666666%" cy="62.77777777777777%" r="4" fill="rgba(65, 105, 225, 0.4)"></circle>
        <circle cx="61.49999999999999%" cy="69.11111111111111%" r="4" fill="rgba(65, 105, 225, 0.4)"></circle>
        <circle cx="70.99999999999997%" cy="56.44444444444444%" r="4" fill="rgba(65, 105, 225, 0.4)"></circle>
        <circle cx="70.99999999999997%" cy="69.11111111111111%" r="4" fill="rgba(65, 105, 225, 0.4)"></circle>
        <circle cx="58.33333333333333%" cy="62.77777777777777%" r="4" fill="rgba(65, 105, 225, 0.4)"></circle>
        <circle cx="67.83333333333333%" cy="69.11111111111111%" r="4" fill="rgba(65, 105, 225, 0.4)"></circle>
        <circle cx="64.66666666666666%" cy="79.66666666666667%" r="4" fill="rgba(65, 105, 225, 0.4)"></circle>
        <circle cx="55.16666666666666%" cy="69.11111111111111%" r="4" fill="rgba(65, 105, 225, 0.4)"></circle>
        <circle cx="58.33333333333333%" cy="75.44444444444444%" r="4" fill="rgba(65, 105, 225, 0.4)"></circle>
        <circle cx="45.666666666666664%" cy="71.22222222222223%" r="4" fill="rgba(65, 105, 225, 0.4)"></circle>
        <circle cx="58.33333333333333%" cy="71.22222222222223%" r="4" fill="rgba(65, 105, 225, 0.4)"></circle>
        <circle cx="61.49999999999999%" cy="67%" r="4" fill="rgba(65, 105, 225, 0.4)"></circle>
        <circle cx="58.33333333333333%" cy="67%" r="4" fill="rgba(65, 105, 225, 0.4)"></circle>
        <circle cx="52%" cy="77.55555555555554%" r="4" fill="rgba(65, 105, 225, 0.4)"></circle>
        <circle cx="48.83333333333333%" cy="75.44444444444444%" r="4" fill="rgba(65, 105, 225, 0.4)"></circle>
        <circle cx="58.33333333333333%" cy="62.77777777777777%" r="4" fill="rgba(65, 105, 225, 0.4)"></circle>
        <circle cx="80.49999999999999%" cy="67%" r="4" fill="rgba(65, 105, 225, 0.4)"></circle>
        <circle cx="83.66666666666666%" cy="60.66666666666667%" r="4" fill="rgba(65, 105, 225, 0.4)"></circle>
        <circle cx="48.83333333333333%" cy="73.33333333333333%" r="4" fill="rgba(65, 105, 225, 0.4)"></circle>
        <circle cx="52%" cy="71.22222222222223%" r="4" fill="rgba(65, 105, 225, 0.4)"></circle>
        <circle cx="61.49999999999999%" cy="60.66666666666667%" r="4" fill="rgba(65, 105, 225, 0.4)"></circle>
        <circle cx="64.66666666666666%" cy="73.33333333333333%" r="4" fill="rgba(65, 105, 225, 0.4)"></circle>
        <circle cx="45.666666666666664%" cy="83.88888888888887%" r="4" fill="rgba(65, 105, 225, 0.4)"></circle>
        <circle cx="58.33333333333333%" cy="69.11111111111111%" r="4" fill="rgba(65, 105, 225, 0.4)"></circle>
        <circle cx="61.49999999999999%" cy="71.22222222222223%" r="4" fill="rgba(65, 105, 225, 0.4)"></circle>
        <circle cx="23.499999999999993%" cy="81.77777777777777%" r="4" fill="rgba(65, 105, 225, 0.4)"></circle>
        <circle cx="52%" cy="83.88888888888887%" r="4" fill="rgba(65, 105, 225, 0.4)"></circle>
        <circle cx="61.49999999999999%" cy="71.22222222222223%" r="4" fill="rgba(65, 105, 225, 0.4)"></circle>
        <circle cx="70.99999999999997%" cy="69.11111111111111%" r="4" fill="rgba(65, 105, 225, 0.4)"></circle>
        <circle cx="45.666666666666664%" cy="75.44444444444444%" r="4" fill="rgba(65, 105, 225, 0.4)"></circle>
        <circle cx="70.99999999999997%" cy="69.11111111111111%" r="4" fill="rgba(65, 105, 225, 0.4)"></circle>
        <circle cx="52%" cy="79.66666666666667%" r="4" fill="rgba(65, 105, 225, 0.4)"></circle>
        <circle cx="67.83333333333333%" cy="64.88888888888889%" r="4" fill="rgba(65, 105, 225, 0.4)"></circle>
        <circle cx="55.16666666666666%" cy="71.22222222222223%" r="4" fill="rgba(65, 105, 225, 0.4)"></circle>
        <circle cx="55.16666666666666%" cy="43.77777777777778%" r="4" fill="rgba(35, 142, 35, 0.4)"></circle>
        <circle cx="36.16666666666667%" cy="54.333333333333336%" r="4" fill="rgba(35, 142, 35, 0.4)"></circle>
        <circle cx="45.666666666666664%" cy="26.888888888888907%" r="4" fill="rgba(35, 142, 35, 0.4)"></circle>
        <circle cx="42.499999999999986%" cy="43.77777777777778%" r="4" fill="rgba(35, 142, 35, 0.4)"></circle>
        <circle cx="45.666666666666664%" cy="39.55555555555556%" r="4" fill="rgba(35, 142, 35, 0.4)"></circle>
        <circle cx="45.666666666666664%" cy="16.333333333333343%" r="4" fill="rgba(35, 142, 35, 0.4)"></circle>
        <circle cx="29.833333333333332%" cy="73.33333333333333%" r="4" fill="rgba(35, 142, 35, 0.4)"></circle>
        <circle cx="42.499999999999986%" cy="22.66666666666667%" r="4" fill="rgba(35, 142, 35, 0.4)"></circle>
        <circle cx="29.833333333333332%" cy="35.33333333333334%" r="4" fill="rgba(35, 142, 35, 0.4)"></circle>
        <circle cx="64.66666666666666%" cy="24.77777777777778%" r="4" fill="rgba(35, 142, 35, 0.4)"></circle>
        <circle cx="52%" cy="39.55555555555556%" r="4" fill="rgba(35, 142, 35, 0.4)"></circle>
        <circle cx="36.16666666666667%" cy="41.666666666666664%" r="4" fill="rgba(35, 142, 35, 0.4)"></circle>
        <circle cx="45.666666666666664%" cy="33.222222222222236%" r="4" fill="rgba(35, 142, 35, 0.4)"></circle>
        <circle cx="29.833333333333332%" cy="56.44444444444444%" r="4" fill="rgba(35, 142, 35, 0.4)"></circle>
        <circle cx="39.33333333333333%" cy="54.333333333333336%" r="4" fill="rgba(35, 142, 35, 0.4)"></circle>
        <circle cx="52%" cy="41.666666666666664%" r="4" fill="rgba(35, 142, 35, 0.4)"></circle>
        <circle cx="45.666666666666664%" cy="39.55555555555556%" r="4" fill="rgba(35, 142, 35, 0.4)"></circle>
        <circle cx="70.99999999999997%" cy="14.222222222222229%" r="4" fill="rgba(35, 142, 35, 0.4)"></circle>
        <circle cx="33%" cy="14.222222222222229%" r="4" fill="rgba(35, 142, 35, 0.4)"></circle>
        <circle cx="20.333333333333336%" cy="50.111111111111114%" r="4" fill="rgba(35, 142, 35, 0.4)"></circle>
        <circle cx="52%" cy="31.111111111111114%" r="4" fill="rgba(35, 142, 35, 0.4)"></circle>
        <circle cx="39.33333333333333%" cy="58.555555555555564%" r="4" fill="rgba(35, 142, 35, 0.4)"></circle>
        <circle cx="39.33333333333333%" cy="14.222222222222229%" r="4" fill="rgba(35, 142, 35, 0.4)"></circle>
        <circle cx="36.16666666666667%" cy="43.77777777777778%" r="4" fill="rgba(35, 142, 35, 0.4)"></circle>
        <circle cx="55.16666666666666%" cy="35.33333333333334%" r="4" fill="rgba(35, 142, 35, 0.4)"></circle>
        <circle cx="52%" cy="24.77777777777778%" r="4" fill="rgba(35, 142, 35, 0.4)"></circle>
        <circle cx="39.33333333333333%" cy="45.888888888888886%" r="4" fill="rgba(35, 142, 35, 0.4)"></circle>
        <circle cx="45.666666666666664%" cy="48.00000000000001%" r="4" fill="rgba(35, 142, 35, 0.4)"></circle>
        <circle cx="39.33333333333333%" cy="41.666666666666664%" r="4" fill="rgba(35, 142, 35, 0.4)"></circle>
        <circle cx="45.666666666666664%" cy="24.77777777777778%" r="4" fill="rgba(35, 142, 35, 0.4)"></circle>
        <circle cx="39.33333333333333%" cy="20.555555555555557%" r="4" fill="rgba(35, 142, 35, 0.4)"></circle>
        <circle cx="70.99999999999997%" cy="10%" r="4" fill="rgba(35, 142, 35, 0.4)"></circle>
        <circle cx="39.33333333333333%" cy="41.666666666666664%" r="4" fill="rgba(35, 142, 35, 0.4)"></circle>
        <circle cx="39.33333333333333%" cy="43.77777777777778%" r="4" fill="rgba(35, 142, 35, 0.4)"></circle>
        <circle cx="33%" cy="48.00000000000001%" r="4" fill="rgba(35, 142, 35, 0.4)"></circle>
        <circle cx="45.666666666666664%" cy="14.222222222222229%" r="4" fill="rgba(35, 142, 35, 0.4)"></circle>
        <circle cx="58.33333333333333%" cy="43.77777777777778%" r="4" fill="rgba(35, 142, 35, 0.4)"></circle>
        <circle cx="48.83333333333333%" cy="41.666666666666664%" r="4" fill="rgba(35, 142, 35, 0.4)"></circle>
        <circle cx="45.666666666666664%" cy="50.111111111111114%" r="4" fill="rgba(35, 142, 35, 0.4)"></circle>
        <circle cx="48.83333333333333%" cy="31.111111111111114%" r="4" fill="rgba(35, 142, 35, 0.4)"></circle>
        <circle cx="48.83333333333333%" cy="35.33333333333334%" r="4" fill="rgba(35, 142, 35, 0.4)"></circle>
        <circle cx="48.83333333333333%" cy="31.111111111111114%" r="4" fill="rgba(35, 142, 35, 0.4)"></circle>
        <circle cx="36.16666666666667%" cy="54.333333333333336%" r="4" fill="rgba(35, 142, 35, 0.4)"></circle>
        <circle cx="52%" cy="33.222222222222236%" r="4" fill="rgba(35, 142, 35, 0.4)"></circle>
        <circle cx="55.16666666666666%" cy="35.33333333333334%" r="4" fill="rgba(35, 142, 35, 0.4)"></circle>
        <circle cx="45.666666666666664%" cy="35.33333333333334%" r="4" fill="rgba(35, 142, 35, 0.4)"></circle>
        <circle cx="29.833333333333332%" cy="43.77777777777778%" r="4" fill="rgba(35, 142, 35, 0.4)"></circle>
        <circle cx="45.666666666666664%" cy="39.55555555555556%" r="4" fill="rgba(35, 142, 35, 0.4)"></circle>
        <circle cx="58.33333333333333%" cy="45.888888888888886%" r="4" fill="rgba(35, 142, 35, 0.4)"></circle>
        <circle cx="45.666666666666664%" cy="52.222222222222214%" r="4" fill="rgba(35, 142, 35, 0.4)"></circle>
        <circle cx="52%" cy="29.000000000000007%" r="4" fill="rgba(255, 127, 0, 0.4)"></circle>
        <circle cx="52%" cy="41.666666666666664%" r="4" fill="rgba(255, 127, 0, 0.4)"></circle>
        <circle cx="48.83333333333333%" cy="31.111111111111114%" r="4" fill="rgba(255, 127, 0, 0.4)"></circle>
        <circle cx="23.499999999999993%" cy="60.66666666666667%" r="4" fill="rgba(255, 127, 0, 0.4)"></circle>
        <circle cx="39.33333333333333%" cy="39.55555555555556%" r="4" fill="rgba(255, 127, 0, 0.4)"></circle>
        <circle cx="39.33333333333333%" cy="56.44444444444444%" r="4" fill="rgba(255, 127, 0, 0.4)"></circle>
        <circle cx="55.16666666666666%" cy="43.77777777777778%" r="4" fill="rgba(255, 127, 0, 0.4)"></circle>
        <circle cx="26.666666666666664%" cy="73.33333333333333%" r="4" fill="rgba(255, 127, 0, 0.4)"></circle>
        <circle cx="42.499999999999986%" cy="37.44444444444446%" r="4" fill="rgba(255, 127, 0, 0.4)"></circle>
        <circle cx="36.16666666666667%" cy="67%" r="4" fill="rgba(255, 127, 0, 0.4)"></circle>
        <circle cx="14%" cy="71.22222222222223%" r="4" fill="rgba(255, 127, 0, 0.4)"></circle>
        <circle cx="45.666666666666664%" cy="52.222222222222214%" r="4" fill="rgba(255, 127, 0, 0.4)"></circle>
        <circle cx="20.333333333333336%" cy="50.111111111111114%" r="4" fill="rgba(255, 127, 0, 0.4)"></circle>
        <circle cx="42.499999999999986%" cy="48.00000000000001%" r="4" fill="rgba(255, 127, 0, 0.4)"></circle>
        <circle cx="42.499999999999986%" cy="58.555555555555564%" r="4" fill="rgba(255, 127, 0, 0.4)"></circle>
        <circle cx="48.83333333333333%" cy="35.33333333333334%" r="4" fill="rgba(255, 127, 0, 0.4)"></circle>
        <circle cx="45.666666666666664%" cy="58.555555555555564%" r="4" fill="rgba(255, 127, 0, 0.4)"></circle>
        <circle cx="36.16666666666667%" cy="54.333333333333336%" r="4" fill="rgba(255, 127, 0, 0.4)"></circle>
        <circle cx="20.333333333333336%" cy="45.888888888888886%" r="4" fill="rgba(255, 127, 0, 0.4)"></circle>
        <circle cx="29.833333333333332%" cy="58.555555555555564%" r="4" fill="rgba(255, 127, 0, 0.4)"></circle>
        <circle cx="52%" cy="52.222222222222214%" r="4" fill="rgba(255, 127, 0, 0.4)"></circle>
        <circle cx="39.33333333333333%" cy="48.00000000000001%" r="4" fill="rgba(255, 127, 0, 0.4)"></circle>
        <circle cx="29.833333333333332%" cy="43.77777777777778%" r="4" fill="rgba(255, 127, 0, 0.4)"></circle>
        <circle cx="39.33333333333333%" cy="48.00000000000001%" r="4" fill="rgba(255, 127, 0, 0.4)"></circle>
        <circle cx="42.499999999999986%" cy="41.666666666666664%" r="4" fill="rgba(255, 127, 0, 0.4)"></circle>
        <circle cx="45.666666666666664%" cy="37.44444444444446%" r="4" fill="rgba(255, 127, 0, 0.4)"></circle>
        <circle cx="39.33333333333333%" cy="33.222222222222236%" r="4" fill="rgba(255, 127, 0, 0.4)"></circle>
        <circle cx="45.666666666666664%" cy="35.33333333333334%" r="4" fill="rgba(255, 127, 0, 0.4)"></circle>
        <circle cx="42.499999999999986%" cy="50.111111111111114%" r="4" fill="rgba(255, 127, 0, 0.4)"></circle>
        <circle cx="33%" cy="56.44444444444444%" r="4" fill="rgba(255, 127, 0, 0.4)"></circle>
        <circle cx="26.666666666666664%" cy="60.66666666666667%" r="4" fill="rgba(255, 127, 0, 0.4)"></circle>
        <circle cx="26.666666666666664%" cy="60.66666666666667%" r="4" fill="rgba(255, 127, 0, 0.4)"></circle>
        <circle cx="36.16666666666667%" cy="54.333333333333336%" r="4" fill="rgba(255, 127, 0, 0.4)"></circle>
        <circle cx="36.16666666666667%" cy="50.111111111111114%" r="4" fill="rgba(255, 127, 0, 0.4)"></circle>
        <circle cx="45.666666666666664%" cy="62.77777777777777%" r="4" fill="rgba(255, 127, 0, 0.4)"></circle>
        <circle cx="58.33333333333333%" cy="50.111111111111114%" r="4" fill="rgba(255, 127, 0, 0.4)"></circle>
        <circle cx="48.83333333333333%" cy="35.33333333333334%" r="4" fill="rgba(255, 127, 0, 0.4)"></circle>
        <circle cx="23.499999999999993%" cy="43.77777777777778%" r="4" fill="rgba(255, 127, 0, 0.4)"></circle>
        <circle cx="45.666666666666664%" cy="58.555555555555564%" r="4" fill="rgba(255, 127, 0, 0.4)"></circle>
        <circle cx="29.833333333333332%" cy="60.66666666666667%" r="4" fill="rgba(255, 127, 0, 0.4)"></circle>
        <circle cx="33%" cy="60.66666666666667%" r="4" fill="rgba(255, 127, 0, 0.4)"></circle>
        <circle cx="45.666666666666664%" cy="48.00000000000001%" r="4" fill="rgba(255, 127, 0, 0.4)"></circle>
        <circle cx="33%" cy="54.333333333333336%" r="4" fill="rgba(255, 127, 0, 0.4)"></circle>
        <circle cx="23.499999999999993%" cy="71.22222222222223%" r="4" fill="rgba(255, 127, 0, 0.4)"></circle>
        <circle cx="36.16666666666667%" cy="58.555555555555564%" r="4" fill="rgba(255, 127, 0, 0.4)"></circle>
        <circle cx="45.666666666666664%" cy="56.44444444444444%" r="4" fill="rgba(255, 127, 0, 0.4)"></circle>
        <circle cx="42.499999999999986%" cy="56.44444444444444%" r="4" fill="rgba(255, 127, 0, 0.4)"></circle>
        <circle cx="42.499999999999986%" cy="45.888888888888886%" r="4" fill="rgba(255, 127, 0, 0.4)"></circle>
        <circle cx="29.833333333333332%" cy="69.11111111111111%" r="4" fill="rgba(255, 127, 0, 0.4)"></circle>
        <circle cx="39.33333333333333%" cy="56.44444444444444%" r="4" fill="rgba(255, 127, 0, 0.4)"></circle>
    </g>
</svg>
